# xmcd
#
# Track frame offsets:
#	150
#	21234
#	43525
#	58867
#	62142
#	83309
#	105094
#	119803
#	146951
#	149467
#	163923
#	184222
#	192133
#	205795
#	209450
#
# Disc length: 3101 seconds
#
# Revision: 0
# Processed by: cddbd v1.5.1PL0 Copyright (c) Steve Scherf et al.
# Submitted via: dBpowerAMP V4.0
#
DISCID=e00c1b0f
DTITLE=royalchord - Nights On The Town
DYEAR=2004
DGENRE=Country
TTITLE0=Carpe Et Diem
TTITLE1=City On My Mind
TTITLE2=Cure For A Broken Heart
TTITLE3=Silver Thread
TTITLE4=All The Pictures In My Mind
TTITLE5=Through The Trees
TTITLE6=Hanging Around Here
TTITLE7=The Golden Handshake
TTITLE8=Hanging Round Here II
TTITLE9=Someday
TTITLE10=Nights On The Town
TTITLE11=Softly, I Leave You
TTITLE12=Big Old Moon
TTITLE13=Lonely Was His Stride
TTITLE14=When I Dream
EXTD=
EXTT0=
EXTT1=
EXTT2=
EXTT3=
EXTT4=
EXTT5=
EXTT6=
EXTT7=
EXTT8=
EXTT9=
EXTT10=
EXTT11=
EXTT12=
EXTT13=
EXTT14=
PLAYORDER=
